<?xml version="1.0" encoding="UTF-8"?>
<svg id="_レイヤー_1" data-name="レイヤー 1" xmlns="http://www.w3.org/2000/svg" viewBox="0 0 660 160">
  <defs>
    <style>
      .cls-1 {
        fill: none;
      }

      .cls-2 {
        fill: #4a90e2;
      }

      .cls-3 {
        fill: #39b54a;
      }

      .cls-4 {
        fill: #dcdcdc;
      }
    </style>
  </defs>
  <g>
    <rect class="cls-1" x="182.76" y="0" width="474.47" height="160"/>
    <path class="cls-2" d="M204.27,52.4c-1.81,0-3.38-.68-4.71-2.04-1.33-1.36-2-2.96-2-4.8s.67-3.42,2-4.74c1.33-1.32,2.9-1.98,4.71-1.98h38.96c.71,0,1.06-.36,1.06-1.08v-3.72c0-1.84.65-3.44,1.94-4.8,1.29-1.36,2.84-2.04,4.65-2.04h1.65c1.8,0,3.35.68,4.65,2.04,1.29,1.36,1.94,2.96,1.94,4.8v3.72c0,.72.35,1.08,1.06,1.08h22.48c1.8,0,3.37.66,4.71,1.98,1.33,1.32,2,2.9,2,4.74s-.67,3.44-2,4.8c-1.33,1.36-2.9,2.04-4.71,2.04h-22.48c-.71,0-1.06.32-1.06.96v8.4c0,.72.35,1.08,1.06,1.08h18.36c1.8,0,3.33.64,4.59,1.92,1.25,1.28,1.88,2.84,1.88,4.68s-.63,3.42-1.88,4.74c-1.26,1.32-2.79,1.98-4.59,1.98h-18.36c-.71,0-1.06.36-1.06,1.08v17.28c0,.64.27,1.16.82,1.56,7.06,4.16,14.4,9.6,22.01,16.32,1.41,1.2,2.16,2.76,2.24,4.68.08,1.92-.51,3.56-1.77,4.92l-.35.36c-1.26,1.36-2.81,2.1-4.65,2.22-1.84.12-3.43-.46-4.77-1.74-4.94-4.4-9.38-8.04-13.3-10.92-.55-.4-.9-.28-1.06.36-1.26,6.4-4.1,11.02-8.53,13.86-4.43,2.84-10.85,4.26-19.24,4.26s-14.85-1.98-19.6-5.94c-4.75-3.96-7.12-9.46-7.12-16.5,0-6.32,2.18-11.42,6.53-15.3,4.35-3.88,11.08-5.82,20.18-5.82,4.47,0,8.75.6,12.83,1.8.63.16.94-.08.94-.72v-10.68c0-.72-.35-1.08-1.06-1.08h-34.84c-1.81,0-3.34-.64-4.59-1.92-1.26-1.28-1.88-2.84-1.88-4.68s.63-3.42,1.88-4.74c1.25-1.32,2.78-1.98,4.59-1.98h34.84c.71,0,1.06-.36,1.06-1.08v-8.28c0-.72-.35-1.08-1.06-1.08h-38.96ZM230.51,116.84c5.18,0,8.75-.9,10.71-2.7,1.96-1.8,2.98-5.18,3.06-10.14,0-.64-.31-1.08-.94-1.32-4.24-1.68-8-2.52-11.3-2.52-4.63,0-7.94.64-9.95,1.92-2,1.28-3,3.24-3,5.88,0,2.8,1,4.98,3,6.54,2,1.56,4.81,2.34,8.42,2.34Z"/>
    <path class="cls-2" d="M313.72,113.24c-1.73-.56-2.94-1.68-3.65-3.36-.71-1.68-.75-3.4-.12-5.16,5.96-15.44,11.38-31.48,16.24-48.12.16-.64-.08-.96-.71-.96h-8.71c-1.81,0-3.35-.68-4.65-2.04-1.29-1.36-1.94-2.96-1.94-4.8s.65-3.44,1.94-4.8c1.29-1.36,2.84-2.04,4.65-2.04h12.48c.71,0,1.14-.32,1.29-.96.31-1.04.71-2.6,1.18-4.68.47-2.08.86-3.64,1.18-4.68.47-1.84,1.49-3.3,3.06-4.38,1.57-1.08,3.3-1.5,5.18-1.26h.82c1.8.24,3.2,1.12,4.18,2.64.98,1.52,1.27,3.16.88,4.92-.79,3.36-1.37,5.84-1.77,7.44-.16.64.12.96.82.96h11.89c1.8,0,3.37.68,4.71,2.04,1.33,1.36,2,2.96,2,4.8s-.67,3.44-2,4.8c-1.33,1.36-2.9,2.04-4.71,2.04h-15.54c-.71,0-1.14.36-1.29,1.08-4.87,17.6-10.71,35.16-17.54,52.68-.71,1.76-1.9,3.06-3.59,3.9-1.69.84-3.43.94-5.24.3l-1.06-.36ZM406.82,43.52c1.88.16,3.39,1,4.53,2.52,1.14,1.52,1.59,3.24,1.35,5.16-.24,1.84-1.1,3.32-2.59,4.44-1.49,1.12-3.14,1.56-4.94,1.32-4.4-.56-8.63-.88-12.71-.96-.63,0-.94.36-.94,1.08v36.36c0,.64.24,1.16.71,1.56,5.33,3.36,10.98,7.68,16.95,12.96,1.41,1.2,2.16,2.76,2.24,4.68.08,1.92-.51,3.56-1.76,4.92l-.35.36c-1.26,1.36-2.79,2.12-4.59,2.28-1.81.16-3.41-.36-4.83-1.56-1.18-1.04-2.79-2.38-4.83-4.02-2.04-1.64-3.22-2.58-3.53-2.82-.47-.32-.79-.24-.94.24-1.26,6.16-4.06,10.7-8.42,13.62-4.35,2.92-10.42,4.38-18.18,4.38-8.71,0-15.52-2.04-20.42-6.12-4.9-4.08-7.36-9.64-7.36-16.68s2.41-12.34,7.24-16.38c4.83-4.04,11.67-6.06,20.54-6.06,3.45,0,7.37.68,11.77,2.04.55.16.82-.08.82-.72v-37.32c0-1.84.65-3.44,1.94-4.8,1.29-1.36,2.84-2,4.65-1.92,10.04.32,17.93.8,23.66,1.44ZM376.57,102.8v-.48c0-.72-.31-1.2-.94-1.44-4.16-2.08-8.04-3.12-11.65-3.12-4.32,0-7.55.84-9.71,2.52-2.16,1.68-3.24,4-3.24,6.96,0,3.12,1.14,5.56,3.41,7.32,2.27,1.76,5.45,2.64,9.53,2.64,4.79,0,8.08-1,9.89-3,1.8-2,2.71-5.8,2.71-11.4Z"/>
    <path class="cls-3" d="M435.54,124.04l-1.65-2.4c-1.02-1.52-1.34-3.16-.94-4.92.39-1.76,1.33-3.08,2.83-3.96,14.51-8.64,26.68-18.56,36.49-29.76.47-.64.43-1.16-.12-1.56-7.69-6.32-16.08-12.84-25.19-19.56-1.49-1.12-2.35-2.58-2.59-4.38-.24-1.8.24-3.38,1.41-4.74l1.53-1.92c1.25-1.52,2.82-2.38,4.71-2.58,1.88-.2,3.57.26,5.06,1.38,8.08,6,16.32,12.36,24.72,19.08.55.4,1.02.32,1.41-.24,6.04-9.28,11.1-19.88,15.18-31.8.63-1.84,1.77-3.24,3.41-4.2,1.65-.96,3.37-1.24,5.18-.84l2.94.72c1.8.4,3.18,1.36,4.12,2.88.94,1.52,1.14,3.16.59,4.92-4.4,14.64-10.47,27.76-18.24,39.36-.47.56-.39,1.08.24,1.56,7.38,6.32,15.61,13.68,24.72,22.08,1.33,1.28,2.04,2.86,2.12,4.74.08,1.88-.51,3.5-1.77,4.86l-1.77,1.92c-1.26,1.36-2.81,2.08-4.65,2.16-1.84.08-3.43-.52-4.77-1.8-6.04-5.68-13.93-12.76-23.66-21.24-.63-.48-1.14-.48-1.53,0-10.99,12.48-24.36,23.32-40.13,32.52-1.65.96-3.39,1.22-5.24.78-1.84-.44-3.32-1.46-4.41-3.06Z"/>
    <path class="cls-2" d="M568.65,130.76c-1.81,0-3.35-.66-4.65-1.98s-1.94-2.9-1.94-4.74V38.36c0-1.84.65-3.42,1.94-4.74,1.29-1.32,2.84-1.98,4.65-1.98h3.18c1.8,0,3.37.66,4.71,1.98,1.33,1.32,2,2.9,2,4.74v25.92c0,.72.27,1.12.82,1.2,18.67,4.64,37.66,10.44,56.96,17.4,1.72.64,3,1.8,3.83,3.48s.92,3.44.29,5.28l-.71,2.28c-.63,1.76-1.75,3.04-3.35,3.84-1.61.8-3.28.92-5,.36-18.6-6.64-35.94-12.04-52.02-16.2-.24-.08-.43-.02-.59.18-.16.2-.24.42-.24.66v41.28c0,1.84-.67,3.42-2,4.74-1.33,1.32-2.9,1.98-4.71,1.98h-3.18ZM604.66,36.32c1.65-.88,3.37-1.04,5.18-.48,1.8.56,3.14,1.68,4,3.36,1.49,2.64,3.06,5.68,4.71,9.12.86,1.68,1,3.4.41,5.16-.59,1.76-1.71,3.04-3.35,3.84l-1.18.6c-1.65.88-3.35,1.02-5.12.42s-3.08-1.74-3.94-3.42c-.55-1.04-1.33-2.56-2.35-4.56-1.02-2-1.81-3.48-2.35-4.44-.86-1.6-1.04-3.3-.53-5.1.51-1.8,1.59-3.1,3.24-3.9l1.29-.6ZM634.44,34.4c2.2,4.16,3.84,7.32,4.94,9.48.86,1.68,1,3.4.41,5.16-.59,1.76-1.71,3.04-3.35,3.84l-1.53.84c-1.65.8-3.35.9-5.12.3-1.77-.6-3.08-1.74-3.94-3.42l-4.94-9.36c-.86-1.6-1.02-3.28-.47-5.04.55-1.76,1.65-3.08,3.29-3.96l1.53-.72c1.65-.88,3.37-1.04,5.18-.48,1.8.56,3.14,1.68,4,3.36Z"/>
  </g>
  <g>
    <circle class="cls-4" cx="100" cy="80" r="80"/>
    <path class="cls-2" d="M155,135.16c-3.84-1.17-12.18-2.98-17.16-3.05-8.04-.11-18.07.87-18.07.87,0,0,7.17-2.01,14.79-2.35,1.4-.06,7.52-.14,13.95.2,6.69.36,17.53,3.04,17.53,3.04l-4.16-9.11s-3.19-2.28-13.27-3.46c-4.82-.56-17.49.45-25.1,2.09-3.99.86-9.03,2.88-9.03,2.88,0,0,5.17-3.39,10.47-4.98,6.75-2.02,11.81-2.5,17.95-2.26,5.9.23,16.12,1.39,16.12,1.39l-4.54-9.43s-15.65-1.84-22.42-.89c-6.78.95-11.71,2.01-17.35,5.36-10.68,6.34-15.24,18.57-15.24,18.57,0,0,.07-.04.18-.1v.1h-.35v-.1c.11.06.18.1.18.1,0,0-4.56-12.23-15.24-18.57-5.64-3.35-10.57-4.41-17.35-5.36-6.76-.95-22.42.89-22.42.89l-4.54,9.43s10.21-1.16,16.12-1.39c6.15-.24,11.21.24,17.95,2.26,5.3,1.59,10.47,4.98,10.47,4.98,0,0-5.03-2.02-9.03-2.88-7.61-1.64-20.29-2.66-25.1-2.09-10.08,1.18-13.27,3.46-13.27,3.46l-4.16,9.11s10.84-2.68,17.53-3.04c6.43-.34,12.54-.27,13.95-.2,7.62.33,14.79,2.35,14.79,2.35,0,0-10.03-.98-18.07-.87-4.98.07-13.32,1.88-17.16,3.05-6.88,2.1-14.47,5.32-14.47,5.32v2.86s10.1-2.48,22.77-4.82c8.2-1.52,21.51-1.43,26.76-.22,4.74,1.09,9.49,2.31,13.22,3.29v.84c0,1.12.92,2.03,2.05,2.03h10.4c1.13,0,2.05-.91,2.05-2.03v-.84c3.72-.98,8.48-2.2,13.22-3.29,5.25-1.21,18.55-1.3,26.76.22,12.67,2.34,22.77,4.82,22.77,4.82v-2.86s-7.59-3.21-14.47-5.32Z"/>
    <path class="cls-3" d="M94.62,77.54s-3.74-13.62-1.4-24.71c1.39-6.58,6.95-25.12,20.25-32.07,14.44-7.54,28.65-7.03,37.91-4.17,16.15,4.99,20.41-.83,20.41-.83,0,0-3.06,18.73-5.79,30.33-3.01,12.78-5.93,20.87-12.44,27.9-8.06,8.7-11.42,10.53-23.36,13.44-14.63,3.56-27.61.24-27.61.24,0,0,4.44-15.98,13.22-26.51,6.41-7.68,20.78-16.79,20.78-16.79,0,0-14.53,2.11-22,8.54-9.66,8.31-19.96,24.63-19.96,24.63Z"/>
    <path class="cls-2" d="M56.46,53.59s8.45-.43,15.47,4.01c10.63,6.71,14.68,16.73,14.68,16.73,0,0,5.69-18.82-3.85-31.6-6.69-8.96-16.53-11.53-24.26-13.55-6.03-1.58-30.73-1.32-30.73-1.32,0,0-.2,19.92,4.62,32.89,4.8,12.91,10.65,18.37,18.16,24.55,12.37,10.17,34.66,3.25,34.66,3.25,0,0-7.95-15.07-10.69-19.88-5.42-9.51-18.06-15.08-18.06-15.08Z"/>
    <path class="cls-3" d="M91.52,81.75c-1.6,1.44-4.82,6.84-4.52,16.61.18,6.09,1.19,12.27,4.06,16.43,2.28,3.3,6.92,4.2,8.65,4.3,3.23.18,7.06-.84,6.9-5.46-.08-2.23-6.46-2.46-9.46-7.14-2.31-3.6-3.14-4.25-4.79-9.97-2.57-8.85.92-16.33-.83-14.77Z"/>
  </g>
</svg>