<?xml version="1.0" encoding="UTF-8"?>
<svg id="_レイヤー_1" data-name="レイヤー 1" xmlns="http://www.w3.org/2000/svg" viewBox="0 0 160 160">
  <defs>
    <style>
      .cls-1 {
        fill: #4a90e2;
      }

      .cls-2 {
        fill: #39b54a;
      }

      .cls-3 {
        fill: #dcdcdc;
      }
    </style>
  </defs>
  <circle class="cls-3" cx="80" cy="80" r="80"/>
  <path class="cls-1" d="M135,135.16c-3.84-1.17-12.18-2.98-17.16-3.05-8.04-.11-18.07.87-18.07.87,0,0,7.17-2.01,14.79-2.35,1.4-.06,7.52-.14,13.95.2,6.69.36,17.53,3.04,17.53,3.04l-4.16-9.11s-3.19-2.28-13.27-3.46c-4.82-.56-17.49.45-25.1,2.09-3.99.86-9.03,2.88-9.03,2.88,0,0,5.17-3.39,10.47-4.98,6.75-2.02,11.81-2.5,17.95-2.26,5.9.23,16.12,1.39,16.12,1.39l-4.54-9.43s-15.65-1.84-22.42-.89c-6.78.95-11.71,2.01-17.35,5.36-10.68,6.34-15.24,18.57-15.24,18.57,0,0,.07-.04.18-.1v.1h-.35v-.1c.11.06.18.1.18.1,0,0-4.56-12.23-15.24-18.57-5.64-3.35-10.57-4.41-17.35-5.36-6.76-.95-22.42.89-22.42.89l-4.54,9.43s10.21-1.16,16.12-1.39c6.15-.24,11.21.24,17.95,2.26,5.3,1.59,10.47,4.98,10.47,4.98,0,0-5.03-2.02-9.03-2.88-7.61-1.64-20.29-2.66-25.1-2.09-10.08,1.18-13.27,3.46-13.27,3.46l-4.16,9.11s10.84-2.68,17.53-3.04c6.43-.34,12.54-.27,13.95-.2,7.62.33,14.79,2.35,14.79,2.35,0,0-10.03-.98-18.07-.87-4.98.07-13.32,1.88-17.16,3.05-6.88,2.1-14.47,5.32-14.47,5.32v2.86s10.1-2.48,22.77-4.82c8.2-1.52,21.51-1.43,26.76-.22,4.74,1.09,9.49,2.31,13.22,3.29v.84c0,1.12.92,2.03,2.05,2.03h10.4c1.13,0,2.05-.91,2.05-2.03v-.84c3.72-.98,8.48-2.2,13.22-3.29,5.25-1.21,18.55-1.3,26.76.22,12.67,2.34,22.77,4.82,22.77,4.82v-2.86s-7.59-3.21-14.47-5.32Z"/>
  <path class="cls-2" d="M74.62,77.54s-3.74-13.62-1.4-24.71c1.39-6.58,6.95-25.12,20.25-32.07,14.44-7.54,28.65-7.03,37.91-4.17,16.15,4.99,20.41-.83,20.41-.83,0,0-3.06,18.73-5.79,30.33-3.01,12.78-5.93,20.87-12.44,27.9-8.06,8.7-11.42,10.53-23.36,13.44-14.63,3.56-27.61.24-27.61.24,0,0,4.44-15.98,13.22-26.51,6.41-7.68,20.78-16.79,20.78-16.79,0,0-14.53,2.11-22,8.54-9.66,8.31-19.96,24.63-19.96,24.63Z"/>
  <path class="cls-1" d="M36.46,53.59s8.45-.43,15.47,4.01c10.63,6.71,14.68,16.73,14.68,16.73,0,0,5.69-18.82-3.85-31.6-6.69-8.96-16.53-11.53-24.26-13.55-6.03-1.58-30.73-1.32-30.73-1.32,0,0-.2,19.92,4.62,32.89,4.8,12.91,10.65,18.37,18.16,24.55,12.37,10.17,34.66,3.25,34.66,3.25,0,0-7.95-15.07-10.69-19.88-5.42-9.51-18.06-15.08-18.06-15.08Z"/>
  <path class="cls-2" d="M71.52,81.75c-1.6,1.44-4.82,6.84-4.52,16.61.18,6.09,1.19,12.27,4.06,16.43,2.28,3.3,6.92,4.2,8.65,4.3,3.23.18,7.06-.84,6.9-5.46-.08-2.23-6.46-2.46-9.46-7.14-2.31-3.6-3.14-4.25-4.79-9.97-2.57-8.85.92-16.33-.83-14.77Z"/>
</svg>